<svg xmlns="http://www.w3.org/2000/svg" viewBox="0 0 680 680">
  <rect x="90" y="90" width="500" height="500" rx="108" ry="108" fill="#2d5a1b"/>
  <rect x="90" y="90" width="500" height="500" rx="108" ry="108" fill="none" stroke="#1a3810" stroke-width="6"/>
  <circle cx="340" cy="340" r="185" fill="#1e3d12" opacity="0.5"/>
  <g transform="translate(340,340) rotate(-40)">
    <rect x="-16" y="-130" width="32" height="220" rx="8" fill="#ffffff"/>
    <rect x="-16" y="70" width="32" height="40" rx="10" fill="#ffffff"/>
    <rect x="-38" y="-165" width="76" height="58" rx="8" fill="#ffffff"/>
    <rect x="-18" y="-165" width="36" height="40" rx="4" fill="#2d5a1b"/>
    <circle cx="0" cy="108" r="30" fill="#ffffff"/>
    <circle cx="0" cy="108" r="16" fill="#2d5a1b"/>
  </g>
  <g transform="translate(340,340) rotate(40)">
    <rect x="-12" y="-20" width="24" height="200" rx="7" fill="#ffffff"/>
    <rect x="-46" y="-120" width="92" height="110" rx="12" fill="#ffffff"/>
    <rect x="-30" y="-122" width="60" height="18" rx="6" fill="#c4ddb4" opacity="0.35"/>
    <rect x="-46" y="-90" width="20" height="58" rx="6" fill="#c4ddb4" opacity="0.45"/>
  </g>
  <text x="340" y="552" text-anchor="middle"
    font-family="system-ui, -apple-system, sans-serif"
    font-size="38" font-weight="700" letter-spacing="6"
    fill="#c4ddb4" opacity="0.75">MK</text>
</svg>
